<?xml version="1.0" encoding="utf-8"?>
<!-- Generator: Adobe Illustrator 19.2.1, SVG Export Plug-In . SVG Version: 6.00 Build 0)  -->
<svg version="1.1" id="Layer_1" xmlns="http://www.w3.org/2000/svg" xmlns:xlink="http://www.w3.org/1999/xlink" x="0px" y="0px"
	 viewBox="0 0 85 85" style="enable-background:new 0 0 85 85;" xml:space="preserve">
<style type="text/css">
	.st0{fill:#EC2139;}
</style>
<g>
	<path class="st0" d="M80.6,32.2c-5.3,1.2-8.1-1.9-6.5-7.2c-2.2,0.8-4.3,1-6-0.8c-1.8-1.8-1.8-3.8-0.7-6.3c-2.5,1-4.5,1-6.3-0.7
		c-1.7-1.7-1.7-3.7-0.7-6.1c-2.3,0.7-4.3,0.9-6.1-0.7c-1.8-1.7-1.7-3.7-1.3-6c-3.6,3.8-7.2,7.7-10.8,11.5c-0.2-0.1-0.3-0.2-0.5-0.3
		c0.4,0.5,1,0.9,1.3,1.5c0.2,0.4,0.2,1.2-0.1,1.5c-0.3,0.3-1.1,0.3-1.4,0c-0.8-0.7-1.6-1.4-2.3-2.3C38.9,16,39,15,39.3,14.7
		c4.3-4.3,8.6-8.5,12.9-12.7c0.6-0.6,1.3-0.6,1.9,0c0.4,0.4,1,0.8,1.3,1.3c0.2,0.5,0.4,1.4,0.1,1.9c-0.8,1.3-0.9,2.5,0.2,3.5
		c1.1,1.1,2.3,1,3.5,0.1c0.8-0.6,1.4-0.4,2,0.2c1.1,1.1,2.4,2,0.9,3.8c-0.8,0.9-0.3,2.1,0.6,2.9c0.9,0.8,2.1,1,3,0.2
		c1.6-1.3,2.2-0.1,3.2,0.8c0.9,0.8,1.2,1.5,0.3,2.6c-0.8,1-0.7,2.2,0.2,3.1c0.9,1,2.1,1.3,3.2,0.4c1.5-1.2,2.2-0.2,3.1,0.7
		c0.9,0.9,1.3,1.6,0.4,2.8c-0.8,1.1-0.6,2.3,0.4,3.2c0.9,0.9,2,0.9,3.1,0.3c1.3-0.8,3.6,0.3,3.8,1.8c0.1,0.4-0.3,1-0.6,1.3
		c-1.5,1.6-3.1,3.2-4.7,4.7c-10.5,10.5-21,21-31.5,31.6c-4.3,4.3-8.6,8.5-12.9,12.8c-1.8,1.8-3.6,1.9-5.4,0
		c-8.5-8.5-17.1-17-25.6-25.6C1,54.7,1,53,2.9,51.1C14,40,25,29,36,18c0.2-0.2,0.4-0.5,0.6-0.5c0.5-0.1,1.2-0.2,1.5,0.1
		c0.3,0.2,0.2,1,0,1.4c-0.1,0.4-0.6,0.7-0.9,1C26.4,30.8,15.7,41.5,5,52.2c-1.6,1.6-1.6,1.7,0,3.3c8.2,8.2,16.5,16.5,24.7,24.7
		c1,1,1.7,1.3,2.8,0.2C48.3,64.5,64.2,48.7,80,32.8C80.2,32.7,80.3,32.5,80.6,32.2z"/>
	<path class="st0" d="M41.3,36.7c-0.3,0.5-0.4,1.1-0.8,1.5c-4.4,4.5-8.9,8.9-13.4,13.4c-2.9,2.9-5.8,5.8-8.7,8.6
		c-0.3,0.3-0.8,0.3-1.2,0.5c0.1-0.4,0.2-0.9,0.4-1.1c7.5-7.6,15.1-15.2,22.7-22.7c0.1-0.1,0.3-0.2,0.5-0.3
		C41,36.6,41.2,36.7,41.3,36.7z"/>
	<path class="st0" d="M35.5,31.4c-0.4,0.5-0.6,0.8-0.8,1c-7.5,7.5-14.9,14.9-22.4,22.4c-0.3,0.3-0.7,0.3-1.1,0.4
		c0.2-0.5,0.3-1,0.6-1.4c7.2-7.3,14.5-14.5,21.7-21.7c0.3-0.3,0.6-0.7,1-0.9C34.7,31.1,35,31.3,35.5,31.4z"/>
</g>
</svg>
