<?xml version="1.0" encoding="utf-8"?>
<!-- Generator: Adobe Illustrator 19.2.1, SVG Export Plug-In . SVG Version: 6.00 Build 0)  -->
<svg version="1.1" id="Layer_1" xmlns="http://www.w3.org/2000/svg" xmlns:xlink="http://www.w3.org/1999/xlink" x="0px" y="0px"
	 viewBox="0 0 85 85" style="enable-background:new 0 0 85 85;" xml:space="preserve">
<style type="text/css">
	.st0{fill:#EC2139;}
</style>
<g>
	<g>
		<path class="st0" d="M61.8,10.1c0-1.3,0-2.5,0-3.7c0-1.3,0.4-2.4,1.9-2.3c1.5,0,1.8,1.1,1.8,2.4c0,1.1,0,2.3,0,3.8
			c1.1,0,2,0,2.9,0c2.5,0.2,5.1,0,7.5,0.6c4.8,1.3,8.1,5.8,8.2,10.8c0.1,16,0.1,32,0,48c0,6.2-5.2,11.4-11.3,11.4
			c-20.1,0.1-40.2,0.1-60.4,0C6.1,80.9,1,75.7,0.9,69.4c-0.1-15.9-0.1-31.7,0-47.6c0-6.4,5.2-11.5,11.7-11.6c2.2,0,4.5,0,6.9,0
			c0-1.3,0-2.5,0-3.6c0-1.3,0.2-2.6,1.8-2.6c1.6,0,1.9,1.2,1.9,2.5c0,1.1,0,2.3,0,3.5C36.2,10.1,48.9,10.1,61.8,10.1z M4.6,38.7
			c0,0.8,0,1.3,0,1.9c0,9.3,0,18.5,0,27.8c0,5.6,3.3,8.9,8.9,8.9c19.3,0,38.6,0,58,0c5.6,0,8.9-3.3,8.9-8.9c0-9.3,0-18.6,0-28
			c0-0.6,0-1.1,0-1.7C55.1,38.7,30,38.7,4.6,38.7z M23.3,14c0,0.8,0,1.5,0,2.1c0,2.4,0,4.7,0,7.1c0,1.1-0.6,1.9-1.8,1.9
			c-1.2,0-1.8-0.7-1.8-1.8c0-0.6,0-1.3,0-1.9c0-2.4,0-4.8,0-7.4c-2.3,0-4.5,0-6.6,0c-4.9,0.1-8.3,3.5-8.4,8.4c0,3.4,0,6.9,0,10.3
			c0,0.7,0,1.4,0,2.1c25.4,0,50.5,0,75.8,0c0-4.6,0.2-9.1-0.1-13.5c-0.2-3.6-2.9-6.6-6.5-7.1c-2.7-0.3-5.5-0.1-8.4-0.1
			c0,0.6,0,1.1,0,1.7c0,2,0,4,0,6c0,2.4-0.5,3.3-1.9,3.2c-2-0.2-1.8-1.7-1.8-3.1c0-0.6,0-1.1,0-1.7c0-2,0-4.1,0-6.2
			C48.9,14,36.2,14,23.3,14z"/>
	</g>
</g>
</svg>
