<?xml version="1.0" encoding="utf-8"?>
<!-- Generator: Adobe Illustrator 19.2.1, SVG Export Plug-In . SVG Version: 6.00 Build 0)  -->
<svg version="1.1" id="Layer_1" xmlns="http://www.w3.org/2000/svg" xmlns:xlink="http://www.w3.org/1999/xlink" x="0px" y="0px"
	 viewBox="0 0 85 85" style="enable-background:new 0 0 85 85;" xml:space="preserve">
<style type="text/css">
	.st0{fill:#EC2139;}
</style>
<path class="st0" d="M43,83.7c-1.8-2.6-3.6-5-5.3-7.5c-7.1-10.5-14-21.1-19-32.9c-1.6-3.7-3-7.6-3.4-11.5C14,16.7,25.7,3.5,41,2.3
	C57.7,1,72,15,70.9,31.7c-0.3,4.9-2.3,9.3-4.3,13.6c-6.3,13.4-14.4,25.6-22.9,37.6C43.5,83.1,43.3,83.3,43,83.7z M43.1,79.7
	c2.4-3.6,4.7-6.8,6.8-10.2c6-9.3,12-18.7,16.1-29c1.3-3.2,2.5-6.8,2.5-10.2C68.8,14.1,53.8,1.9,37.8,5.2C26.5,7.6,18,17.6,17.5,29.1
	c-0.2,4.6,1.4,8.8,3.1,12.9c4.9,11.4,11.7,21.9,18.5,32.2C40.4,76,41.7,77.7,43.1,79.7z"/>
<circle class="st0" cx="42.8" cy="27.1" r="8.3"/>
</svg>
