<?xml version="1.0" encoding="utf-8"?>
<!-- Generator: Adobe Illustrator 19.2.1, SVG Export Plug-In . SVG Version: 6.00 Build 0)  -->
<svg version="1.1" id="Layer_1" xmlns="http://www.w3.org/2000/svg" xmlns:xlink="http://www.w3.org/1999/xlink" x="0px" y="0px"
	 viewBox="0 0 85 85" style="enable-background:new 0 0 85 85;" xml:space="preserve">
<style type="text/css">
	.st0{fill:#F9F9FA;}
</style>
<path class="st0" d="M44.5,24.8c0-1.7,0-3.2,0-4.7c0-0.4,0.2-0.8,0.5-1c0.2-0.1,0.7,0.1,0.9,0.4c2.6,2.6,5.2,5.2,7.8,7.8
	c0.8,0.8,0.8,1,0,1.8c-2.6,2.6-5.2,5.2-7.8,7.8c-0.2,0.2-0.7,0.4-1,0.3c-0.2-0.1-0.4-0.6-0.4-0.9c0-1.5,0-3.1,0-4.7
	c-0.4,0-0.7,0-1,0c-3.1,0-6.1,0-9.2,0c-1.7,0-2.3-0.5-2.3-2.3c0-0.8,0-1.5,0-2.3c0-1.5,0.6-2.1,2.1-2.1c3.1,0,6.1,0,9.2,0
	C43.7,24.8,44,24.8,44.5,24.8z"/>
<path class="st0" d="M43,85.1c-1.9-2.7-3.7-5.2-5.5-7.8c-7.4-10.9-14.6-22-19.7-34.2c-1.6-3.8-3.2-7.9-3.5-11.9
	C12.8,15.4,25,1.7,40.9,0.5C58.3-0.9,73.2,13.7,72,31c-0.3,5-2.4,9.7-4.5,14.2C61,59.1,52.6,71.8,43.7,84.3
	C43.5,84.5,43.3,84.7,43,85.1z M43.1,81c2.5-3.7,4.9-7.1,7.1-10.6c6.3-9.7,12.5-19.4,16.7-30.2c1.3-3.4,2.6-7,2.6-10.6
	C69.8,12.7,54.2,0,37.6,3.5C25.8,5.9,17,16.3,16.5,28.3c-0.2,4.8,1.4,9.1,3.3,13.4c5.1,11.9,12.1,22.7,19.3,33.5
	C40.3,77,41.6,78.8,43.1,81z"/>
</svg>
