<?xml version="1.0" encoding="utf-8"?>
<!-- Generator: Adobe Illustrator 19.2.1, SVG Export Plug-In . SVG Version: 6.00 Build 0)  -->
<svg version="1.1" id="Layer_1" xmlns="http://www.w3.org/2000/svg" xmlns:xlink="http://www.w3.org/1999/xlink" x="0px" y="0px"
	 viewBox="0 0 85 85" style="enable-background:new 0 0 85 85;" xml:space="preserve">
<style type="text/css">
	.st0{fill:#EC2139;stroke:#F3F3F3;stroke-width:0.6;}
</style>
<g>
	<path class="st0" d="M1.5,44c0-8.2-0.1-16.4,0-24.5C1.8,10.5,9.8,2.9,18.7,2.9c2.5,0,4.2,1.5,4.4,3.8c0.2,2.2-1.4,4-3.9,4.2
		c-2.6,0.2-4.9,0.9-6.8,2.8c-1.8,1.8-2.7,3.9-2.7,6.4c0,15.8,0,31.6,0,47.3c0,5.1,4.1,9.2,9.3,9.2c15.7,0,31.5,0,47.2,0
		c5.1,0,9-3.9,9.2-9.1c0.1-2.4,1.6-4.1,3.8-4.2c2.5-0.1,4.3,1.6,4.3,4.1C83.8,75,78.4,82.3,71,84.3c-1.7,0.5-3.5,0.7-5.3,0.7
		c-15.5,0.1-31,0-46.4,0c-10,0-17.7-7.7-17.8-17.7C1.5,59.6,1.5,51.8,1.5,44C1.5,44,1.5,44,1.5,44z"/>
	<path class="st0" d="M57,21.5c0-1.8,0-3.4,0-5.1c0-3,0-6.1,0-9.1c0-2.6,1.7-4.4,4.1-4.4c2.3,0,4.1,1.8,4.1,4.4c0,4.3,0,8.5,0,12.8
		c0,0.4,0,0.8,0,1.4c0.5,0,1,0,1.4,0c4.2,0,8.4,0,12.5,0c2.2,0,3.8,1.2,4.3,3c0.6,2.6-1.2,5-3.9,5.1c-4.3,0-8.7,0-13,0
		c-0.4,0-0.8,0-1.3,0c0,0.5,0,0.9,0,1.3c0,4.2,0,8.4,0,12.5c0,2.3-1.1,3.9-3,4.4c-2.2,0.6-4.5-0.7-5-3C57,44.3,57,43.7,57,43.1
		c0-4.4,0-8.9,0-13.5c-0.5,0-0.9,0-1.3,0c-4.3,0-8.5,0-12.8,0c-2.6,0-4.4-1.7-4.4-4c0-2.3,1.8-4,4.3-4.1c4.2,0,8.4,0,12.7,0
		C55.9,21.5,56.4,21.5,57,21.5z"/>
</g>
</svg>
