<?xml version="1.0" encoding="utf-8"?>
<!-- Generator: Adobe Illustrator 19.2.1, SVG Export Plug-In . SVG Version: 6.00 Build 0)  -->
<svg version="1.1" id="Layer_1" xmlns="http://www.w3.org/2000/svg" xmlns:xlink="http://www.w3.org/1999/xlink" x="0px" y="0px"
	 viewBox="0 0 85 85" style="enable-background:new 0 0 85 85;" xml:space="preserve">
<style type="text/css">
	.st0{fill:#EC2139;stroke:#EC2139;stroke-width:0.5;}
</style>
<g>
	<path class="st0" d="M46,29.6c0,1.8,0,3.7,0,5.5c0,1.3,0.5,2.3,1.4,3.2c0.4,0.4,0.7,1,0.7,1.5c0.1,3.1,0,6.2,0.1,9.3
		c0,1-0.3,1.5-1.2,1.9c-5.1,2.5-9.9,5.6-14.4,9.2c-1.3,1.1-2,2.4-1.9,4.1c0,2.2,0,4.4,0,6.5c0,0.7,0,1.3-0.9,1.3
		c-0.8,0-0.8-0.7-0.8-1.3c0-2.3,0-4.5,0-6.8c0-2.1,0.9-3.8,2.6-5.1c4.4-3.5,9.1-6.6,14.1-9.2c0.7-0.3,1-0.7,0.9-1.5
		c-0.1-2.6,0-5.2,0-7.8c0-0.5-0.3-0.9-0.6-1.4c-0.5-1.1-1.4-2.1-1.5-3.1c-0.2-4.4-0.4-8.8,0-13.2c0.5-5.1,4.5-8.6,9.6-9
		c3.1-0.2,6.1-0.1,8.8,1.7c3.3,2.3,4.7,5.5,4.8,9.4c0,3.2,0,6.4,0,9.6c0,1.8-0.5,3.4-1.8,4.7c-0.3,0.3-0.4,0.8-0.4,1.2
		c0,2.7,0,5.4,0,8c0,0.7,0.3,1.1,0.9,1.4c5.1,2.6,9.9,5.7,14.3,9.3c1.6,1.3,2.4,2.9,2.5,4.9c0,2.3,0,4.5,0,6.8c0,0.6,0,1.3-0.9,1.3
		c-0.8,0-0.8-0.7-0.8-1.3c0-2.1,0-4.3,0-6.4c0-1.8-0.7-3.2-2.1-4.3c-4.4-3.5-9-6.4-14-8.9c-1.1-0.5-1.5-1.2-1.5-2.4
		c0.1-2.9,0-5.9,0.1-8.8c0-0.6,0.4-1.2,0.7-1.8c0.4-0.9,1.3-1.7,1.3-2.6c0.1-4.2,0.2-8.4-0.1-12.6c-0.3-4.1-3.7-7.2-7.9-7.5
		c-2.5-0.2-5-0.4-7.3,0.9c-3.1,1.7-4.7,4.3-4.8,7.8C45.9,26,46,27.8,46,29.6z"/>
	<path class="st0" d="M34.8,32.3c0,1.6,0.1,3.1,0,4.7c-0.1,0.9-0.5,1.9-1,2.7c-0.4,0.6-0.7,1.2-0.7,2c0.1,1.6,0,3.3,0,4.9
		c0,0.6-0.1,1.3-0.9,1.2c-0.3-0.1-0.8-0.7-0.8-1.1c-0.1-2.1-0.1-4.1,0-6.2c0-0.4,0.3-0.9,0.6-1.2c0.8-0.7,1.2-1.6,1.2-2.6
		c0-2.9,0-5.9,0-8.8c-0.1-3.7-2.8-6.5-6.4-6.9c-2.8-0.3-5.6-0.1-7.7,2.2c-1.2,1.4-1.9,2.9-1.9,4.8c0,2.9-0.1,5.7,0,8.6
		c0,0.9,0.7,1.7,1,2.6c0.2,0.5,0.6,1,0.6,1.5c0.1,2.5,0,5.1,0,7.6c0,0.9-0.4,1.4-1.1,1.8c-4,2-7.8,4.4-11.3,7.2
		c-1.3,1-2,2.3-1.9,3.9c0.1,1.5,0,3.1,0,4.6c0,0.6,0.1,1.5-0.8,1.4c-0.9,0-0.8-0.9-0.8-1.5c0-1.7,0-3.4,0-5.1c0-1.8,0.6-3.4,2.2-4.5
		c3.7-2.5,7.5-4.9,11.2-7.3c0.6-0.4,0.9-0.8,0.9-1.5c-0.1-2,0-4,0-6c0-0.5-0.3-1-0.5-1.4c-0.4-1.1-1.1-2.2-1.1-3.3
		c-0.2-2.9-0.1-5.7,0-8.6c0.1-4.9,3.7-8.6,8.6-8.8c3-0.1,5.9,0.3,8.2,2.6c1.7,1.7,2.6,3.7,2.6,6C34.8,29.3,34.8,30.8,34.8,32.3z"/>
</g>
</svg>
